<svg version="1.1" viewBox="0.0 0.0 446.3569553805774 552.6902887139107" fill="none" stroke="none" stroke-linecap="square" stroke-miterlimit="10" xmlns:xlink="http://www.w3.org/1999/xlink" xmlns="http://www.w3.org/2000/svg"><clipPath id="p.0"><path d="m0 0l446.35696 0l0 552.6903l-446.35696 0l0 -552.6903z" clip-rule="nonzero"/></clipPath><g clip-path="url(#p.0)"><path fill="#000000" fill-opacity="0.0" d="m0 0l446.35696 0l0 552.6903l-446.35696 0z" fill-rule="evenodd"/><defs><linearGradient id="p.1" gradientUnits="userSpaceOnUse" gradientTransform="matrix(0.0 -14.758988986616124 14.758988986616124 0.0 0.0 0.0)" spreadMethod="pad" x1="-27.621890509655522" y1="14.938166570374095" x2="-27.621946083243557" y2="29.69715555688559"><stop offset="0.0" stop-color="#f35653"/><stop offset="0.5" stop-color="#f35653"/><stop offset="1.0" stop-color="#f35653"/></linearGradient></defs><path fill="url(#p.1)" d="m438.3 407.6712l-217.82678 -134.12598l217.82678 -134.12599z" fill-rule="evenodd"/><path stroke="#f35653" stroke-width="1.0" stroke-linejoin="round" stroke-linecap="butt" d="m438.3 407.6712l-217.82678 -134.12598l217.82678 -134.12599z" fill-rule="evenodd"/><defs><linearGradient id="p.2" gradientUnits="userSpaceOnUse" gradientTransform="matrix(0.0 14.758988248524288 -14.758988248524288 0.0 0.0 0.0)" spreadMethod="pad" x1="9.44552368252173" y1="-15.056258419226953" x2="9.445470887610457" y2="-0.2972701707970929"><stop offset="0.0" stop-color="#f35653"/><stop offset="0.5" stop-color="#f35653"/><stop offset="1.0" stop-color="#f35653"/></linearGradient></defs><path fill="url(#p.2)" d="m4.3874073 139.40637l217.82677 134.12598l-217.82677 134.126z" fill-rule="evenodd"/><path stroke="#f35653" stroke-width="1.0" stroke-linejoin="round" stroke-linecap="butt" d="m4.3874073 139.40637l217.82677 134.12598l-217.82677 134.126z" fill-rule="evenodd"/><path fill="#f69694" d="m4.385502 138.96588l216.96063 -134.67717l216.96063 134.67717l-216.96063 134.67715z" fill-rule="evenodd"/><path fill="#ffffff" d="m4.385502 408.32098l216.96063 -134.67715l216.96063 134.67715l-216.96063 134.67719z" fill-rule="evenodd"/><path fill="#eeeeee" fill-opacity="0.3383" d="m222.22551 542.45636l-217.84251 -134.12595l217.81102 -134.126z" fill-rule="evenodd"/></g></svg>