<svg version="1.1" viewBox="0.0 0.0 680.3149606299213 907.0866141732283" fill="none" stroke="none" stroke-linecap="square" stroke-miterlimit="10" xmlns:xlink="http://www.w3.org/1999/xlink" xmlns="http://www.w3.org/2000/svg"><clipPath id="p.0"><path d="m0 0l680.31494 0l0 907.0866l-680.31494 0l0 -907.0866z" clip-rule="nonzero"/></clipPath><g clip-path="url(#p.0)"><path fill="#000000" fill-opacity="0.0" d="m0 0l680.31494 0l0 907.0866l-680.31494 0z" fill-rule="evenodd"/><defs><linearGradient id="p.1" gradientUnits="userSpaceOnUse" gradientTransform="matrix(0.0 -14.927678617664258 14.927678617664258 0.0 0.0 0.0)" spreadMethod="pad" x1="-28.54163861488819" y1="22.785130210894703" x2="-28.54169356046913" y2="37.71280882845784"><stop offset="0.0" stop-color="#f35653"/><stop offset="0.5" stop-color="#f35653"/><stop offset="1.0" stop-color="#f35653"/></linearGradient></defs><path fill="url(#p.1)" d="m562.9647 426.0604l-222.83466 -134.88187l222.83466 -134.8819z" fill-rule="evenodd"/><path stroke="#f35653" stroke-width="1.0" stroke-linejoin="round" stroke-linecap="butt" d="m562.9647 426.0604l-222.83466 -134.88187l222.83466 -134.8819z" fill-rule="evenodd"/><defs><linearGradient id="p.2" gradientUnits="userSpaceOnUse" gradientTransform="matrix(0.0 14.927679647892608 -14.927679647892608 0.0 0.0 0.0)" spreadMethod="pad" x1="10.469326835928566" y1="-22.904572081273276" x2="10.469272577171132" y2="-7.976892433479279"><stop offset="0.0" stop-color="#f35653"/><stop offset="0.5" stop-color="#f35653"/><stop offset="1.0" stop-color="#f35653"/></linearGradient></defs><path fill="url(#p.2)" d="m119.07649 156.28276l222.83464 134.88188l-222.83464 134.8819z" fill-rule="evenodd"/><path stroke="#f35653" stroke-width="1.0" stroke-linejoin="round" stroke-linecap="butt" d="m119.07649 156.28276l222.83464 134.88188l-222.83464 134.8819z" fill-rule="evenodd"/><path fill="#f69694" d="m119.065865 155.8362l221.95276 -135.43307l221.95276 135.43307l-221.95276 135.43306z" fill-rule="evenodd"/><path fill="#ffffff" d="m119.065865 426.71027l221.95276 -135.43307l221.95276 135.43307l-221.95276 135.43304z" fill-rule="evenodd"/><path fill="#eeeeee" fill-opacity="0.3383" d="m341.91406 561.60565l-222.8504 -134.88187l222.81891 -134.8819z" fill-rule="evenodd"/><path fill="#000000" fill-opacity="0.0" d="m679.29193 554.10724l-670.07874 0l0 178.07874l670.07874 0z" fill-rule="evenodd"/><path fill="#ffffff" d="m89.85381 599.10974l0 -3.453125l-64.5 0l0 3.453125l30.625002 0l-0.125 89.4375l3.4375 0l0 -89.4375l30.562496 0zm23.859634 37.0625l0 -45.625l-3.5 0l0 98.0l3.5 0l0 -44.78125q0.953125 -4.46875 3.3125 -8.484375q2.375 -4.03125 5.8125 -7.015625q3.390625 -3.0 7.5937576 -4.78125q4.203125 -1.796875 8.875 -1.859375q5.21875 -0.0625 8.921875 1.59375q3.703125 1.65625 6.125 4.59375q2.359375 3.0 3.46875 7.125q1.125 4.109375 1.1875 8.953125l0 44.65625l3.515625 0l0 -44.65625q-0.0625 -5.546875 -1.4375 -10.265625q-1.375 -4.734375 -4.1875 -8.171875q-2.796875 -3.375 -7.140625 -5.28125q-4.328125 -1.921875 -10.265625 -1.921875q-4.53125 0 -8.484375 1.375q-3.9531326 1.359375 -7.2187576 3.71875q-3.3125 2.421875 -5.875 5.71875q-2.546875 3.28125 -4.203125 7.109375zm103.29714 53.65625q7.140625 0 13.296875 -2.703125q6.15625 -2.71875 10.5625 -8.46875l-2.5 -1.71875q-4.140625 4.96875 -9.53125 7.265625q-5.390625 2.296875 -11.828125 2.234375q-6.328125 -0.0625 -11.46875 -2.640625q-5.125 -2.59375 -8.765625 -6.921875q-3.703125 -4.28125 -5.75 -9.859375q-2.03125 -5.578125 -2.09375 -11.515625l0 -3.765625l54.03125 0l0 -4.015625q-0.0625 -5.9375 -1.984375 -11.296875q-1.90625 -5.359375 -5.40625 -9.4375q-3.578125 -4.015625 -8.625 -6.375q-5.03125 -2.359375 -11.28125 -2.359375q-7.015625 0 -12.578125 2.96875q-5.546875 2.953125 -9.4375 7.8125q-3.890625 4.84375 -6.0 11.03125q-2.09375 6.1875 -2.15625 12.625l0 2.8125q0.0625 6.703125 2.359375 12.890625q2.296875 6.1875 6.4375 10.96875q4.078125 4.78125 9.84375 7.625q5.78125 2.84375 12.875 2.84375zm-1.34375 -68.140625q5.296875 0 9.6875 2.109375q4.40625 2.09375 7.53125 5.671875q3.125 3.578125 4.875 8.234375q1.765625 4.65625 1.765625 9.765625l0 0.828125l-50.265625 0q0.625 -5.171875 2.703125 -9.984375q2.078125 -4.828125 5.453125 -8.515625q3.3125 -3.703125 7.90625 -5.90625q4.59375 -2.203125 10.34375 -2.203125zm74.3284 -20.796875l-3.703125 0l0 18.625l-20.296875 0l0 3.515625l20.296875 0l0 49.0q0.125 4.96875 1.71875 8.359375q1.59375 3.375 4.40625 5.484375q2.796875 2.09375 6.625 3.015625q3.828125 0.9375 8.421875 0.9375q1.796875 0 3.515625 -0.03125q1.71875 -0.03125 3.4375 -0.234375q0.90625 -0.0625 1.796875 -0.1875q0.890625 -0.125 1.78125 -0.3125l-0.703125 -3.265625q-0.828125 0.078125 -1.71875 0.171875q-0.890625 0.09375 -1.71875 0.15625q-1.671875 0.125 -3.328125 0.1875q-1.65625 0.0625 -3.375 0.0625q-3.703125 0 -6.796875 -0.765625q-3.09375 -0.765625 -5.390625 -2.484375q-2.296875 -1.65625 -3.609375 -4.359375q-1.296875 -2.71875 -1.4375 -6.734375l0 -49.0l24.890625 0l0 -3.515625l-24.890625 0l0.078125 -18.625zm104.937744 87.65625l4.015625 0l-0.0625 -0.578125q-0.640625 -3.4375 -1.21875 -6.625q-0.5625 -3.203125 -0.625 -6.703125l0 -34.578125q-0.125 -5.421875 -2.140625 -9.53125q-2.015625 -4.125 -5.453125 -6.859375q-3.453125 -2.6875 -8.015625 -4.046875q-4.546875 -1.375 -9.65625 -1.375q-4.53125 0 -9.09375 1.28125q-4.5625 1.265625 -8.265625 3.75q-3.765625 2.546875 -6.21875 6.3125q-2.453125 3.765625 -2.703125 8.8125l3.4375 0.125q0.1875 -4.34375 2.359375 -7.5q2.171875 -3.15625 5.421875 -5.265625q3.265625 -2.03125 7.25 -3.046875q3.984375 -1.03125 7.8125 -1.03125q4.34375 0 8.265625 1.125q3.921875 1.109375 6.921875 3.34375q2.9375 2.234375 4.71875 5.6875q1.78125 3.4375 1.90625 8.09375l0 10.078125l-17.03125 0q-5.734375 0.0625 -11.609375 1.015625q-5.875 0.953125 -10.59375 3.328125q-4.78125 2.421875 -7.78125 6.46875q-3.0 4.046875 -3.0 10.234375q0 4.53125 1.84375 8.046875q1.859375 3.5 4.921875 5.859375q3.0625 2.359375 7.015625 3.609375q3.953125 1.25 8.109375 1.25q4.265625 0 8.34375 -0.90625q4.09375 -0.890625 7.734375 -2.671875q3.625 -1.71875 6.71875 -4.390625q3.09375 -2.6875 5.328125 -6.203125q0.0625 3.25 0.3125 6.453125q0.265625 3.1875 1.03125 6.4375zm-29.46875 -2.109375q-3.25 0 -6.546875 -0.984375q-3.28125 -0.984375 -5.890625 -2.90625q-2.6875 -1.90625 -4.34375 -4.75q-1.65625 -2.84375 -1.65625 -6.46875q-0.0625 -5.046875 2.359375 -8.328125q2.421875 -3.296875 6.375 -5.390625q4.46875 -2.421875 10.140625 -3.1875q5.6875 -0.765625 10.84375 -0.90625l16.84375 0l0 16.34375q-1.90625 4.078125 -4.84375 7.203125q-2.9375 3.125 -6.578125 5.234375q-3.6875 2.109375 -7.9375 3.15625q-4.234375 1.046875 -8.765625 0.984375zm58.625244 2.109375l28.703125 0q5.5625 -0.125 10.53125 -1.9375q4.984375 -1.828125 8.734375 -5.140625q3.703125 -3.328125 5.84375 -7.984375q2.140625 -4.65625 2.078125 -10.515625q0 -4.34375 -1.53125 -8.078125q-1.53125 -3.734375 -4.15625 -6.65625q-2.671875 -2.9375 -6.25 -4.90625q-3.5625 -1.984375 -7.65625 -2.890625l-0.0625 -0.3125q3.515625 -1.34375 6.40625 -3.15625q2.90625 -1.8125 5.015625 -4.375q2.046875 -2.484375 3.15625 -5.734375q1.125 -3.265625 1.125 -7.40625q0 -6.125 -2.4375 -10.578125q-2.421875 -4.46875 -6.4375 -7.40625q-4.015625 -2.875 -9.21875 -4.3125q-5.203125 -1.4375 -10.75 -1.5l-23.09375 0l0 92.890625zm3.375 -45.875l25.90625 0q4.46875 0.125 8.609375 1.53125q4.15625 1.40625 7.40625 3.953125q3.1875 2.625 5.15625 6.390625q1.984375 3.765625 1.984375 8.546875q0.0625 5.109375 -1.859375 9.15625q-1.90625 4.046875 -5.15625 6.859375q-3.25 2.796875 -7.59375 4.359375q-4.328125 1.5625 -9.125 1.640625l-25.328125 0l0 -42.4375zm0 -3.4375l0 -40.125l19.71875 0q4.71875 0.0625 9.28125 1.21875q4.5625 1.140625 8.140625 3.5q3.5625 2.421875 5.734375 6.21875q2.171875 3.796875 2.171875 9.15625q0 5.234375 -2.015625 8.96875q-2.0 3.71875 -5.328125 6.140625q-3.375 2.5 -7.71875 3.6875q-4.328125 1.171875 -8.984375 1.234375l-21.0 0zm70.187744 13.453125l0 2.6875q0.0625 6.703125 2.09375 12.921875q2.046875 6.21875 5.9375 11.0q3.828125 4.78125 9.4375 7.65625q5.625 2.875 12.828125 2.875q7.21875 0 12.796875 -2.90625q5.578125 -2.90625 9.40625 -7.6875q3.828125 -4.78125 5.828125 -11.0q2.015625 -6.234375 2.078125 -12.859375l0 -2.6875q-0.0625 -6.6875 -2.109375 -12.90625q-2.03125 -6.234375 -5.859375 -11.015625q-3.890625 -4.78125 -9.484375 -7.640625q-5.578125 -2.875 -12.78125 -2.875q-7.203125 0 -12.796875 2.90625q-5.578125 2.890625 -9.40625 7.671875q-3.828125 4.796875 -5.875 11.015625q-2.03125 6.21875 -2.09375 12.84375zm3.4375 2.6875l0 -2.6875q0.0625 -5.796875 1.875 -11.375q1.828125 -5.59375 5.265625 -9.921875q3.390625 -4.34375 8.328125 -7.015625q4.953125 -2.6875 11.265625 -2.6875q6.3125 0 11.28125 2.6875q4.984375 2.671875 8.4375 7.015625q3.375 4.328125 5.1875 9.921875q1.828125 5.578125 1.890625 11.375l0 2.6875q-0.0625 5.859375 -1.859375 11.421875q-1.78125 5.546875 -5.15625 9.890625q-3.453125 4.390625 -8.375 7.046875q-4.90625 2.640625 -11.28125 2.640625q-6.375 0 -11.359375 -2.640625q-4.96875 -2.65625 -8.359375 -6.984375q-3.4375 -4.34375 -5.265625 -9.921875q-1.8125 -5.59375 -1.875 -11.453125zm106.031494 -5.234375l-24.5 -30.625l-4.59375 0l26.859375 33.625l-28.265625 35.40625l4.53125 0l25.90625 -32.40625l26.03125 32.40625l4.46875 0l-28.265625 -35.40625l26.859375 -33.625l-4.59375 0l-24.4375 30.625z" fill-rule="nonzero"/><path fill="#000000" fill-opacity="0.0" d="m112.0 768.0l456.0 0l0 136.06299l-456.0 0z" fill-rule="evenodd"/><path fill="#eeeeee" d="m195.64062 807.72l0 -18.265625l-11.796875 18.265625l-1.734375 0l-11.8125 -18.34375l0 18.34375l-1.953125 0l0 -21.46875l2.09375 0l12.59375 19.453125l12.453125 -19.453125l2.078125 0l0 21.46875l-1.921875 0zm30.796875 -1.125q-1.3125 0.40625 -2.4375 0.703125q-1.125 0.28125 -2.21875 0.453125q-1.09375 0.1875 -2.234375 0.265625q-1.125 0.09375 -2.484375 0.09375q-3.15625 0 -5.703125 -0.765625q-2.546875 -0.765625 -4.34375 -2.1875q-1.78125 -1.4375 -2.75 -3.46875q-0.96875 -2.03125 -0.96875 -4.5625q0 -2.453125 0.921875 -4.5q0.9375 -2.046875 2.609375 -3.515625q1.671875 -1.46875 4.0 -2.28125q2.328125 -0.8125 5.140625 -0.8125q2.921875 0 5.203125 0.78125q2.28125 0.78125 3.84375 2.234375q1.5625 1.453125 2.375 3.53125q0.8125 2.0625 0.8125 4.65625l0 0.484375l-22.890625 0q0.171875 2.0 1.0 3.609375q0.828125 1.609375 2.34375 2.734375q1.53125 1.125 3.75 1.734375q2.234375 0.59375 5.203125 0.59375q1.265625 0 2.5625 -0.171875q1.296875 -0.171875 2.484375 -0.453125q1.1875 -0.296875 2.171875 -0.65625q0.984375 -0.375 1.609375 -0.765625l0 2.265625zm-0.15625 -10.59375q-0.109375 -1.640625 -0.734375 -3.125q-0.625 -1.5 -1.875 -2.640625q-1.234375 -1.140625 -3.15625 -1.8125q-1.90625 -0.671875 -4.578125 -0.671875q-2.515625 0 -4.40625 0.671875q-1.890625 0.671875 -3.203125 1.8125q-1.3125 1.125 -2.0625 2.625q-0.75 1.484375 -0.953125 3.140625l20.96875 0zm31.078125 0.96875q0 2.0625 -0.4375 3.671875q-0.421875 1.59375 -1.203125 2.78125q-0.78125 1.1875 -1.90625 2.015625q-1.109375 0.828125 -2.484375 1.328125q-1.359375 0.5 -2.96875 0.734375q-1.59375 0.21875 -3.359375 0.21875l-11.078125 0l0 -21.46875l11.046875 0q2.640625 0 4.90625 0.515625q2.265625 0.515625 3.921875 1.765625q1.671875 1.234375 2.609375 3.296875q0.953125 2.0625 0.953125 5.140625zm-2.015625 0q0 -1.75 -0.34375 -3.09375q-0.34375 -1.34375 -0.984375 -2.328125q-0.640625 -1.0 -1.5625 -1.671875q-0.921875 -0.671875 -2.078125 -1.078125q-1.15625 -0.421875 -2.515625 -0.59375q-1.359375 -0.171875 -2.890625 -0.171875l-9.09375 0l0 17.890625l9.09375 0q2.296875 0 4.203125 -0.40625q1.90625 -0.421875 3.265625 -1.4375q1.375 -1.03125 2.140625 -2.75q0.765625 -1.734375 0.765625 -4.359375zm7.703125 10.75l0 -21.46875l1.953125 0l0 21.46875l-1.953125 0zm28.625 0l0 -2.375q-1.125 0.609375 -2.5625 1.125q-1.421875 0.515625 -3.015625 0.890625q-1.578125 0.375 -3.25 0.578125q-1.671875 0.203125 -3.28125 0.203125q-2.09375 0 -3.765625 -0.375q-1.65625 -0.375 -2.8125 -1.109375q-1.15625 -0.75 -1.78125 -1.84375q-0.625 -1.109375 -0.625 -2.5625q0 -1.4375 0.71875 -2.53125q0.734375 -1.109375 2.078125 -1.921875q1.34375 -0.828125 3.234375 -1.390625q1.90625 -0.578125 4.25 -0.96875q2.34375 -0.40625 5.0625 -0.65625q2.734375 -0.265625 5.75 -0.4375l0 -1.640625q0 -1.0 -0.375 -1.765625q-0.375 -0.765625 -1.046875 -1.328125q-0.671875 -0.578125 -1.578125 -0.953125q-0.90625 -0.390625 -1.96875 -0.625q-1.046875 -0.234375 -2.21875 -0.328125q-1.15625 -0.109375 -2.328125 -0.109375q-1.578125 0 -2.875 0.15625q-1.296875 0.15625 -2.421875 0.4375q-1.125 0.265625 -2.15625 0.625q-1.03125 0.359375 -2.078125 0.765625l0 -2.28125q2.171875 -0.578125 4.625 -1.0q2.46875 -0.4375 5.234375 -0.4375q2.34375 0 4.375 0.40625q2.03125 0.390625 3.53125 1.265625q1.5 0.875 2.359375 2.265625q0.859375 1.375 0.859375 3.359375l0 14.5625l-1.9375 0zm0 -11.640625q-5.109375 0.28125 -8.734375 0.796875q-3.609375 0.515625 -5.90625 1.265625q-2.296875 0.75 -3.375 1.75q-1.0625 1.0 -1.0625 2.265625q0 1.03125 0.515625 1.828125q0.53125 0.796875 1.515625 1.34375q0.984375 0.53125 2.390625 0.8125q1.40625 0.265625 3.15625 0.265625q1.03125 0 2.125 -0.109375q1.109375 -0.125 2.203125 -0.328125q1.09375 -0.21875 2.15625 -0.5q1.0625 -0.296875 2.0 -0.640625q0.9375 -0.34375 1.703125 -0.734375q0.78125 -0.390625 1.3125 -0.796875l0 -7.21875zm33.65625 -10.21875q1.484375 0 2.765625 0.15625q1.28125 0.140625 2.453125 0.421875q1.171875 0.265625 2.28125 0.65625q1.109375 0.375 2.234375 0.84375l0 2.375q-0.890625 -0.5625 -1.90625 -1.0625q-1.0 -0.5 -2.171875 -0.875q-1.15625 -0.375 -2.5 -0.59375q-1.328125 -0.21875 -2.859375 -0.21875q-3.125 0 -5.453125 0.65625q-2.328125 0.65625 -3.875 1.875q-1.546875 1.21875 -2.328125 2.96875q-0.765625 1.75 -0.765625 3.9375q0 2.046875 0.75 3.78125q0.765625 1.71875 2.296875 2.96875q1.546875 1.25 3.859375 1.953125q2.3125 0.703125 5.421875 0.703125q1.21875 0 2.40625 -0.09375q1.203125 -0.09375 2.265625 -0.234375q1.0625 -0.15625 1.9375 -0.328125q0.875 -0.1875 1.484375 -0.375l0 -6.515625l-8.734375 0l0 -1.828125l10.6875 0l0 9.4375q-1.15625 0.40625 -2.34375 0.71875q-1.171875 0.3125 -2.4375 0.53125q-1.25 0.203125 -2.609375 0.3125q-1.34375 0.109375 -2.828125 0.109375q-3.03125 0 -5.625 -0.671875q-2.59375 -0.6875 -4.5 -2.0625q-1.890625 -1.390625 -2.96875 -3.484375q-1.078125 -2.09375 -1.078125 -4.921875q0 -1.890625 0.5 -3.4375q0.5 -1.5625 1.40625 -2.796875q0.921875 -1.25 2.203125 -2.171875q1.296875 -0.921875 2.859375 -1.515625q1.578125 -0.609375 3.390625 -0.90625q1.8125 -0.3125 3.78125 -0.3125zm35.921875 21.859375l0 -2.375q-1.125 0.609375 -2.5625 1.125q-1.421875 0.515625 -3.015625 0.890625q-1.578125 0.375 -3.25 0.578125q-1.671875 0.203125 -3.28125 0.203125q-2.09375 0 -3.765625 -0.375q-1.65625 -0.375 -2.8125 -1.109375q-1.15625 -0.75 -1.78125 -1.84375q-0.625 -1.109375 -0.625 -2.5625q0 -1.4375 0.71875 -2.53125q0.734375 -1.109375 2.078125 -1.921875q1.34375 -0.828125 3.234375 -1.390625q1.90625 -0.578125 4.25 -0.96875q2.34375 -0.40625 5.0625 -0.65625q2.734375 -0.265625 5.75 -0.4375l0 -1.640625q0 -1.0 -0.375 -1.765625q-0.375 -0.765625 -1.046875 -1.328125q-0.671875 -0.578125 -1.578125 -0.953125q-0.90625 -0.390625 -1.96875 -0.625q-1.046875 -0.234375 -2.21875 -0.328125q-1.15625 -0.109375 -2.328125 -0.109375q-1.578125 0 -2.875 0.15625q-1.296875 0.15625 -2.421875 0.4375q-1.125 0.265625 -2.15625 0.625q-1.03125 0.359375 -2.078125 0.765625l0 -2.28125q2.171875 -0.578125 4.625 -1.0q2.46875 -0.4375 5.234375 -0.4375q2.34375 0 4.375 0.40625q2.03125 0.390625 3.53125 1.265625q1.5 0.875 2.359375 2.265625q0.859375 1.375 0.859375 3.359375l0 14.5625l-1.9375 0zm0 -11.640625q-5.109375 0.28125 -8.734375 0.796875q-3.609375 0.515625 -5.90625 1.265625q-2.296875 0.75 -3.375 1.75q-1.0625 1.0 -1.0625 2.265625q0 1.03125 0.515625 1.828125q0.53125 0.796875 1.515625 1.34375q0.984375 0.53125 2.390625 0.8125q1.40625 0.265625 3.15625 0.265625q1.03125 0 2.125 -0.109375q1.109375 -0.125 2.203125 -0.328125q1.09375 -0.21875 2.15625 -0.5q1.0625 -0.296875 2.0 -0.640625q0.9375 -0.34375 1.703125 -0.734375q0.78125 -0.390625 1.3125 -0.796875l0 -7.21875zm17.375 -8.046875l0 19.6875l-1.9375 0l0 -19.6875l-9.765625 0l0 -1.78125l21.46875 0l0 1.78125l-9.765625 0zm34.984375 18.5625q-1.3125 0.40625 -2.4375 0.703125q-1.125 0.28125 -2.21875 0.453125q-1.09375 0.1875 -2.234375 0.265625q-1.125 0.09375 -2.484375 0.09375q-3.15625 0 -5.703125 -0.765625q-2.546875 -0.765625 -4.34375 -2.1875q-1.78125 -1.4375 -2.75 -3.46875q-0.96875 -2.03125 -0.96875 -4.5625q0 -2.453125 0.921875 -4.5q0.9375 -2.046875 2.609375 -3.515625q1.671875 -1.46875 4.0 -2.28125q2.328125 -0.8125 5.140625 -0.8125q2.921875 0 5.203125 0.78125q2.28125 0.78125 3.84375 2.234375q1.5625 1.453125 2.375 3.53125q0.8125 2.0625 0.8125 4.65625l0 0.484375l-22.890625 0q0.171875 2.0 1.0 3.609375q0.828125 1.609375 2.34375 2.734375q1.53125 1.125 3.75 1.734375q2.234375 0.59375 5.203125 0.59375q1.265625 0 2.5625 -0.171875q1.296875 -0.171875 2.484375 -0.453125q1.1875 -0.296875 2.171875 -0.65625q0.984375 -0.375 1.609375 -0.765625l0 2.265625zm-0.15625 -10.59375q-0.109375 -1.640625 -0.734375 -3.125q-0.625 -1.5 -1.875 -2.640625q-1.234375 -1.140625 -3.15625 -1.8125q-1.90625 -0.671875 -4.578125 -0.671875q-2.515625 0 -4.40625 0.671875q-1.890625 0.671875 -3.203125 1.8125q-1.3125 1.125 -2.0625 2.625q-0.75 1.484375 -0.953125 3.140625l20.96875 0zm25.28125 -9.75l7.65625 19.90625l7.9375 -19.90625l2.171875 0l-8.640625 21.46875l-2.90625 0l-7.53125 -19.390625l-7.515625 19.390625l-2.90625 0l-8.640625 -21.46875l2.171875 0l7.9375 19.90625l7.640625 -19.90625l2.625 0zm42.0 21.46875l0 -2.375q-1.125 0.609375 -2.5625 1.125q-1.421875 0.515625 -3.015625 0.890625q-1.578125 0.375 -3.25 0.578125q-1.671875 0.203125 -3.28125 0.203125q-2.09375 0 -3.765625 -0.375q-1.65625 -0.375 -2.8125 -1.109375q-1.15625 -0.75 -1.78125 -1.84375q-0.625 -1.109375 -0.625 -2.5625q0 -1.4375 0.71875 -2.53125q0.734375 -1.109375 2.078125 -1.921875q1.34375 -0.828125 3.234375 -1.390625q1.90625 -0.578125 4.25 -0.96875q2.34375 -0.40625 5.0625 -0.65625q2.734375 -0.265625 5.75 -0.4375l0 -1.640625q0 -1.0 -0.375 -1.765625q-0.375 -0.765625 -1.046875 -1.328125q-0.671875 -0.578125 -1.578125 -0.953125q-0.90625 -0.390625 -1.96875 -0.625q-1.046875 -0.234375 -2.21875 -0.328125q-1.15625 -0.109375 -2.328125 -0.109375q-1.578125 0 -2.875 0.15625q-1.296875 0.15625 -2.421875 0.4375q-1.125 0.265625 -2.15625 0.625q-1.03125 0.359375 -2.078125 0.765625l0 -2.28125q2.171875 -0.578125 4.625 -1.0q2.46875 -0.4375 5.234375 -0.4375q2.34375 0 4.375 0.40625q2.03125 0.390625 3.53125 1.265625q1.5 0.875 2.359375 2.265625q0.859375 1.375 0.859375 3.359375l0 14.5625l-1.9375 0zm0 -11.640625q-5.109375 0.28125 -8.734375 0.796875q-3.609375 0.515625 -5.90625 1.265625q-2.296875 0.75 -3.375 1.75q-1.0625 1.0 -1.0625 2.265625q0 1.03125 0.515625 1.828125q0.53125 0.796875 1.515625 1.34375q0.984375 0.53125 2.390625 0.8125q1.40625 0.265625 3.15625 0.265625q1.03125 0 2.125 -0.109375q1.109375 -0.125 2.203125 -0.328125q1.09375 -0.21875 2.15625 -0.5q1.0625 -0.296875 2.0 -0.640625q0.9375 -0.34375 1.703125 -0.734375q0.78125 -0.390625 1.3125 -0.796875l0 -7.21875zm30.90625 3.796875q0 2.109375 -0.984375 3.65625q-0.984375 1.53125 -2.71875 2.546875q-1.71875 1.015625 -4.078125 1.515625q-2.34375 0.484375 -5.078125 0.484375q-2.96875 0 -5.453125 -0.375q-2.484375 -0.390625 -4.34375 -1.078125l0 -2.265625q1.0 0.421875 2.0625 0.78125q1.0625 0.359375 2.265625 0.640625q1.203125 0.265625 2.5625 0.421875q1.375 0.140625 2.96875 0.140625q2.25 0 4.21875 -0.421875q1.96875 -0.4375 3.421875 -1.25q1.46875 -0.828125 2.3125 -2.03125q0.859375 -1.203125 0.859375 -2.765625l0 -4.0625q-0.75 1.015625 -1.84375 1.953125q-1.078125 0.921875 -2.421875 1.640625q-1.328125 0.703125 -2.890625 1.140625q-1.5625 0.421875 -3.296875 0.421875q-1.96875 0 -3.5 -0.359375q-1.515625 -0.375 -2.65625 -1.015625q-1.125 -0.640625 -1.90625 -1.515625q-0.78125 -0.890625 -1.265625 -1.921875q-0.46875 -1.046875 -0.6875 -2.1875q-0.203125 -1.140625 -0.203125 -2.3125l0 -5.40625l1.984375 0l0 4.984375q0 1.796875 0.421875 3.265625q0.4375 1.46875 1.421875 2.515625q0.984375 1.046875 2.578125 1.625q1.609375 0.5625 3.96875 0.5625q1.828125 0 3.359375 -0.484375q1.53125 -0.5 2.796875 -1.328125q1.265625 -0.84375 2.296875 -1.9375q1.03125 -1.09375 1.84375 -2.296875l0 -6.90625l1.984375 0l0 13.625z" fill-rule="nonzero"/><path fill="#eeeeee" d="m144.48438 826.4794q-2.359375 0 -4.0625 0.328125q-1.703125 0.3125 -2.8125 0.984375q-1.09375 0.671875 -1.625 1.71875q-0.53125 1.046875 -0.53125 2.5l0 2.390625l18.34375 0l0 1.828125l-18.34375 0l0 9.890625l-1.953125 0l0 -14.4375q0 -1.65625 0.578125 -2.96875q0.59375 -1.3125 1.875 -2.203125q1.28125 -0.90625 3.28125 -1.375q2.015625 -0.484375 4.859375 -0.484375l10.015625 0l0 1.828125l-9.625 0zm40.953125 8.921875q0 2.890625 -1.046875 5.0q-1.046875 2.09375 -2.875 3.46875q-1.828125 1.359375 -4.3125 2.015625q-2.484375 0.65625 -5.359375 0.65625q-2.890625 0 -5.390625 -0.65625q-2.5 -0.65625 -4.34375 -2.015625q-1.84375 -1.375 -2.890625 -3.46875q-1.046875 -2.109375 -1.046875 -5.0q0 -1.921875 0.484375 -3.484375q0.484375 -1.578125 1.359375 -2.8125q0.875 -1.25 2.109375 -2.15625q1.25 -0.90625 2.765625 -1.5q1.53125 -0.609375 3.28125 -0.890625q1.75 -0.296875 3.671875 -0.296875q2.875 0 5.359375 0.65625q2.484375 0.65625 4.3125 2.03125q1.828125 1.359375 2.875 3.46875q1.046875 2.09375 1.046875 4.984375zm-2.015625 0q0 -2.28125 -0.75 -4.03125q-0.734375 -1.75 -2.1875 -2.9375q-1.453125 -1.203125 -3.625 -1.8125q-2.15625 -0.625 -5.015625 -0.625q-2.859375 0 -5.046875 0.625q-2.171875 0.625 -3.640625 1.828125q-1.46875 1.1875 -2.21875 2.953125q-0.75 1.75 -0.75 4.0q0 2.28125 0.75 4.03125q0.75 1.75 2.21875 2.953125q1.46875 1.1875 3.640625 1.8125q2.1875 0.609375 5.046875 0.609375q2.859375 0 5.015625 -0.609375q2.171875 -0.625 3.625 -1.8125q1.453125 -1.203125 2.1875 -2.953125q0.75 -1.75 0.75 -4.03125zm23.640625 -9.09375q-0.453125 -0.140625 -1.265625 -0.296875q-0.796875 -0.171875 -2.0625 -0.171875q-1.75 0 -3.296875 0.4375q-1.53125 0.421875 -2.859375 1.15625q-1.3125 0.734375 -2.4375 1.71875q-1.125 0.96875 -2.03125 2.0625l0 14.90625l-1.953125 0l0 -21.46875l1.953125 0l0 4.375q1.046875 -1.078125 2.265625 -1.984375q1.234375 -0.90625 2.59375 -1.546875q1.359375 -0.65625 2.84375 -1.015625q1.5 -0.375 3.09375 -0.375q0.546875 0 0.984375 0.03125q0.4375 0.015625 0.796875 0.0625q0.375 0.03125 0.703125 0.078125q0.328125 0.046875 0.671875 0.109375l0 1.921875l0 0zm39.078125 9.0625q0 2.0625 -0.4375 3.671875q-0.421875 1.59375 -1.203125 2.78125q-0.78125 1.1875 -1.90625 2.015625q-1.109375 0.828125 -2.484375 1.328125q-1.359375 0.5 -2.96875 0.734375q-1.59375 0.21875 -3.359375 0.21875l-11.078125 0l0 -21.46875l11.046875 0q2.640625 0 4.90625 0.515625q2.265625 0.515625 3.921875 1.765625q1.671875 1.234375 2.609375 3.296875q0.953125 2.0625 0.953125 5.140625zm-2.015625 0q0 -1.75 -0.34375 -3.09375q-0.34375 -1.34375 -0.984375 -2.328125q-0.640625 -1.0 -1.5625 -1.671875q-0.921875 -0.671875 -2.078125 -1.078125q-1.15625 -0.421875 -2.515625 -0.59375q-1.359375 -0.171875 -2.890625 -0.171875l-9.09375 0l0 17.890625l9.09375 0q2.296875 0 4.203125 -0.40625q1.90625 -0.421875 3.265625 -1.4375q1.375 -1.03125 2.140625 -2.75q0.765625 -1.734375 0.765625 -4.359375zm29.34375 9.625q-1.3125 0.40625 -2.4375 0.703125q-1.125 0.28125 -2.21875 0.453125q-1.09375 0.1875 -2.234375 0.265625q-1.125 0.09375 -2.484375 0.09375q-3.15625 0 -5.703125 -0.765625q-2.546875 -0.765625 -4.34375 -2.1875q-1.78125 -1.4375 -2.75 -3.46875q-0.96875 -2.03125 -0.96875 -4.5625q0 -2.453125 0.921875 -4.5q0.9375 -2.046875 2.609375 -3.515625q1.671875 -1.46875 4.0 -2.28125q2.328125 -0.8125 5.140625 -0.8125q2.921875 0 5.203125 0.78125q2.28125 0.78125 3.84375 2.234375q1.5625 1.453125 2.375 3.53125q0.8125 2.0625 0.8125 4.65625l0 0.484375l-22.890625 0q0.171875 2.0 1.0 3.609375q0.828125 1.609375 2.34375 2.734375q1.53125 1.125 3.75 1.734375q2.234375 0.59375 5.203125 0.59375q1.265625 0 2.5625 -0.171875q1.296875 -0.171875 2.484375 -0.453125q1.1875 -0.296875 2.171875 -0.65625q0.984375 -0.375 1.609375 -0.765625l0 2.265625zm-0.15625 -10.59375q-0.109375 -1.640625 -0.734375 -3.125q-0.625 -1.5 -1.875 -2.640625q-1.234375 -1.140625 -3.15625 -1.8125q-1.90625 -0.671875 -4.578125 -0.671875q-2.515625 0 -4.40625 0.671875q-1.890625 0.671875 -3.203125 1.8125q-1.3125 1.125 -2.0625 2.625q-0.75 1.484375 -0.953125 3.140625l20.96875 0zm29.65625 10.015625q-1.125 0.46875 -2.234375 0.859375q-1.09375 0.390625 -2.28125 0.671875q-1.1875 0.28125 -2.5 0.4375q-1.3125 0.15625 -2.859375 0.15625q-1.90625 0 -3.671875 -0.3125q-1.75 -0.3125 -3.265625 -0.9375q-1.515625 -0.625 -2.75 -1.546875q-1.234375 -0.9375 -2.125 -2.171875q-0.875 -1.234375 -1.359375 -2.78125q-0.46875 -1.546875 -0.46875 -3.390625q0 -1.84375 0.46875 -3.390625q0.484375 -1.546875 1.359375 -2.78125q0.890625 -1.234375 2.125 -2.15625q1.234375 -0.9375 2.75 -1.5625q1.515625 -0.625 3.265625 -0.9375q1.75 -0.3125 3.671875 -0.3125q1.546875 0 2.859375 0.15625q1.3125 0.15625 2.5 0.4375q1.1875 0.28125 2.28125 0.671875q1.109375 0.375 2.234375 0.84375l0 2.34375q-0.890625 -0.5625 -1.90625 -1.0625q-1.015625 -0.5 -2.203125 -0.875q-1.171875 -0.375 -2.515625 -0.59375q-1.34375 -0.21875 -2.875 -0.21875q-3.09375 0 -5.359375 0.671875q-2.265625 0.671875 -3.75 1.90625q-1.46875 1.21875 -2.1875 2.96875q-0.703125 1.734375 -0.703125 3.890625q0 2.15625 0.703125 3.890625q0.71875 1.734375 2.1875 2.96875q1.484375 1.21875 3.75 1.890625q2.265625 0.65625 5.359375 0.65625q1.53125 0 2.890625 -0.21875q1.375 -0.21875 2.5625 -0.59375q1.203125 -0.375 2.203125 -0.859375q1.015625 -0.5 1.84375 -1.046875l0 2.328125l0 0zm27.4375 0.578125q-1.3125 0.40625 -2.4375 0.703125q-1.125 0.28125 -2.21875 0.453125q-1.09375 0.1875 -2.234375 0.265625q-1.125 0.09375 -2.484375 0.09375q-3.15625 0 -5.703125 -0.765625q-2.546875 -0.765625 -4.34375 -2.1875q-1.78125 -1.4375 -2.75 -3.46875q-0.96875 -2.03125 -0.96875 -4.5625q0 -2.453125 0.921875 -4.5q0.9375 -2.046875 2.609375 -3.515625q1.671875 -1.46875 4.0 -2.28125q2.328125 -0.8125 5.140625 -0.8125q2.921875 0 5.203125 0.78125q2.28125 0.78125 3.84375 2.234375q1.5625 1.453125 2.375 3.53125q0.8125 2.0625 0.8125 4.65625l0 0.484375l-22.890625 0q0.171875 2.0 1.0 3.609375q0.828125 1.609375 2.34375 2.734375q1.53125 1.125 3.75 1.734375q2.234375 0.59375 5.203125 0.59375q1.265625 0 2.5625 -0.171875q1.296875 -0.171875 2.484375 -0.453125q1.1875 -0.296875 2.171875 -0.65625q0.984375 -0.375 1.609375 -0.765625l0 2.265625zm-0.15625 -10.59375q-0.109375 -1.640625 -0.734375 -3.125q-0.625 -1.5 -1.875 -2.640625q-1.234375 -1.140625 -3.15625 -1.8125q-1.90625 -0.671875 -4.578125 -0.671875q-2.515625 0 -4.40625 0.671875q-1.890625 0.671875 -3.203125 1.8125q-1.3125 1.125 -2.0625 2.625q-0.75 1.484375 -0.953125 3.140625l20.96875 0zm28.421875 11.71875l0 -14.171875q0 -1.78125 -0.484375 -2.921875q-0.46875 -1.15625 -1.359375 -1.828125q-0.875 -0.671875 -2.140625 -0.9375q-1.265625 -0.265625 -2.84375 -0.265625q-1.828125 0 -3.59375 0.453125q-1.75 0.4375 -3.3125 1.125q-1.5625 0.671875 -2.875 1.5q-1.3125 0.828125 -2.21875 1.59375l0 15.453125l-1.953125 0l0 -21.46875l1.953125 0l0 3.765625q1.09375 -0.6875 2.40625 -1.4375q1.328125 -0.765625 2.84375 -1.390625q1.53125 -0.640625 3.265625 -1.046875q1.734375 -0.40625 3.65625 -0.40625q2.171875 0 3.78125 0.53125q1.625 0.515625 2.6875 1.484375q1.078125 0.953125 1.609375 2.328125q0.53125 1.359375 0.53125 3.046875l0 14.59375l-1.953125 0zm17.78125 -19.6875l0 19.6875l-1.9375 0l0 -19.6875l-9.765625 0l0 -1.78125l21.46875 0l0 1.78125l-9.765625 0zm29.890625 -0.125q-0.453125 -0.140625 -1.265625 -0.296875q-0.796875 -0.171875 -2.0625 -0.171875q-1.75 0 -3.296875 0.4375q-1.53125 0.421875 -2.859375 1.15625q-1.3125 0.734375 -2.4375 1.71875q-1.125 0.96875 -2.03125 2.0625l0 14.90625l-1.953125 0l0 -21.46875l1.953125 0l0 4.375q1.046875 -1.078125 2.265625 -1.984375q1.234375 -0.90625 2.59375 -1.546875q1.359375 -0.65625 2.84375 -1.015625q1.5 -0.375 3.09375 -0.375q0.546875 0 0.984375 0.03125q0.4375 0.015625 0.796875 0.0625q0.375 0.03125 0.703125 0.078125q0.328125 0.046875 0.671875 0.109375l0 1.921875l0 0zm23.046875 19.8125l0 -2.375q-1.125 0.609375 -2.5625 1.125q-1.421875 0.515625 -3.015625 0.890625q-1.578125 0.375 -3.25 0.578125q-1.671875 0.203125 -3.28125 0.203125q-2.09375 0 -3.765625 -0.375q-1.65625 -0.375 -2.8125 -1.109375q-1.15625 -0.75 -1.78125 -1.84375q-0.625 -1.109375 -0.625 -2.5625q0 -1.4375 0.71875 -2.53125q0.734375 -1.109375 2.078125 -1.921875q1.34375 -0.828125 3.234375 -1.390625q1.90625 -0.578125 4.25 -0.96875q2.34375 -0.40625 5.0625 -0.65625q2.734375 -0.265625 5.75 -0.4375l0 -1.640625q0 -1.0 -0.375 -1.765625q-0.375 -0.765625 -1.046875 -1.328125q-0.671875 -0.578125 -1.578125 -0.953125q-0.90625 -0.390625 -1.96875 -0.625q-1.046875 -0.234375 -2.21875 -0.328125q-1.15625 -0.109375 -2.328125 -0.109375q-1.578125 0 -2.875 0.15625q-1.296875 0.15625 -2.421875 0.4375q-1.125 0.265625 -2.15625 0.625q-1.03125 0.359375 -2.078125 0.765625l0 -2.28125q2.171875 -0.578125 4.625 -1.0q2.46875 -0.4375 5.234375 -0.4375q2.34375 0 4.375 0.40625q2.03125 0.390625 3.53125 1.265625q1.5 0.875 2.359375 2.265625q0.859375 1.375 0.859375 3.359375l0 14.5625l-1.9375 0zm0 -11.640625q-5.109375 0.28125 -8.734375 0.796875q-3.609375 0.515625 -5.90625 1.265625q-2.296875 0.75 -3.375 1.75q-1.0625 1.0 -1.0625 2.265625q0 1.03125 0.515625 1.828125q0.53125 0.796875 1.515625 1.34375q0.984375 0.53125 2.390625 0.8125q1.40625 0.265625 3.15625 0.265625q1.03125 0 2.125 -0.109375q1.109375 -0.125 2.203125 -0.328125q1.09375 -0.21875 2.15625 -0.5q1.0625 -0.296875 2.0 -0.640625q0.9375 -0.34375 1.703125 -0.734375q0.78125 -0.390625 1.3125 -0.796875l0 -7.21875zm10.9375 4.21875q0 1.453125 0.234375 2.5q0.234375 1.046875 0.984375 1.71875q0.75 0.671875 2.15625 1.0q1.421875 0.3125 3.765625 0.3125l9.703125 0l0 1.890625l-10.09375 0q-2.578125 0 -4.265625 -0.40625q-1.671875 -0.421875 -2.671875 -1.28125q-0.984375 -0.875 -1.375 -2.203125q-0.390625 -1.328125 -0.390625 -3.15625l0 -14.421875l1.953125 0l0 14.046875zm20.765625 7.421875l0 -21.46875l1.953125 0l0 21.46875l-1.953125 0zm26.53125 -18.296875q-0.609375 -0.296875 -1.40625 -0.625q-0.796875 -0.34375 -1.828125 -0.609375q-1.015625 -0.265625 -2.296875 -0.4375q-1.28125 -0.1875 -2.84375 -0.1875q-1.890625 0 -3.375 0.21875q-1.46875 0.21875 -2.5 0.6875q-1.015625 0.453125 -1.5625 1.15625q-0.53125 0.703125 -0.53125 1.671875q0 0.8125 0.5 1.421875q0.515625 0.609375 1.375 1.078125q0.875 0.46875 2.03125 0.859375q1.171875 0.375 2.46875 0.71875q1.3125 0.328125 2.6875 0.671875q1.390625 0.34375 2.6875 0.75q1.3125 0.390625 2.46875 0.890625q1.171875 0.484375 2.03125 1.140625q0.875 0.65625 1.375 1.5q0.515625 0.84375 0.515625 1.953125q0 1.203125 -0.453125 2.109375q-0.453125 0.890625 -1.234375 1.546875q-0.765625 0.640625 -1.8125 1.078125q-1.03125 0.421875 -2.21875 0.671875q-1.171875 0.25 -2.4375 0.34375q-1.25 0.109375 -2.46875 0.109375q-2.796875 0 -5.078125 -0.40625q-2.265625 -0.40625 -4.328125 -1.109375l0 -2.390625q2.125 1.265625 4.484375 1.734375q2.375 0.46875 4.984375 0.46875q1.84375 0 3.40625 -0.21875q1.5625 -0.21875 2.703125 -0.6875q1.140625 -0.484375 1.765625 -1.25q0.640625 -0.765625 0.640625 -1.875q0 -0.890625 -0.515625 -1.5625q-0.5 -0.671875 -1.375 -1.171875q-0.859375 -0.515625 -2.03125 -0.90625q-1.15625 -0.390625 -2.453125 -0.71875q-1.296875 -0.34375 -2.6875 -0.65625q-1.375 -0.328125 -2.671875 -0.703125q-1.296875 -0.375 -2.46875 -0.84375q-1.15625 -0.46875 -2.03125 -1.09375q-0.859375 -0.640625 -1.375 -1.46875q-0.5 -0.828125 -0.5 -1.921875q0 -1.078125 0.40625 -1.90625q0.40625 -0.84375 1.109375 -1.453125q0.71875 -0.609375 1.671875 -1.015625q0.953125 -0.421875 2.03125 -0.65625q1.09375 -0.25 2.265625 -0.359375q1.171875 -0.109375 2.3125 -0.109375q1.25 0 2.359375 0.109375q1.125 0.109375 2.15625 0.296875q1.046875 0.171875 2.03125 0.40625q1.0 0.234375 2.015625 0.5l0 2.25zm29.484375 17.171875q-1.3125 0.40625 -2.4375 0.703125q-1.125 0.28125 -2.21875 0.453125q-1.09375 0.1875 -2.234375 0.265625q-1.125 0.09375 -2.484375 0.09375q-3.15625 0 -5.703125 -0.765625q-2.546875 -0.765625 -4.34375 -2.1875q-1.78125 -1.4375 -2.75 -3.46875q-0.96875 -2.03125 -0.96875 -4.5625q0 -2.453125 0.921875 -4.5q0.9375 -2.046875 2.609375 -3.515625q1.671875 -1.46875 4.0 -2.28125q2.328125 -0.8125 5.140625 -0.8125q2.921875 0 5.203125 0.78125q2.28125 0.78125 3.84375 2.234375q1.5625 1.453125 2.375 3.53125q0.8125 2.0625 0.8125 4.65625l0 0.484375l-22.890625 0q0.171875 2.0 1.0 3.609375q0.828125 1.609375 2.34375 2.734375q1.53125 1.125 3.75 1.734375q2.234375 0.59375 5.203125 0.59375q1.265625 0 2.5625 -0.171875q1.296875 -0.171875 2.484375 -0.453125q1.1875 -0.296875 2.171875 -0.65625q0.984375 -0.375 1.609375 -0.765625l0 2.265625zm-0.15625 -10.59375q-0.109375 -1.640625 -0.734375 -3.125q-0.625 -1.5 -1.875 -2.640625q-1.234375 -1.140625 -3.15625 -1.8125q-1.90625 -0.671875 -4.578125 -0.671875q-2.515625 0 -4.40625 0.671875q-1.890625 0.671875 -3.203125 1.8125q-1.3125 1.125 -2.0625 2.625q-0.75 1.484375 -0.953125 3.140625l20.96875 0zm31.078125 0.96875q0 2.0625 -0.4375 3.671875q-0.421875 1.59375 -1.203125 2.78125q-0.78125 1.1875 -1.90625 2.015625q-1.109375 0.828125 -2.484375 1.328125q-1.359375 0.5 -2.96875 0.734375q-1.59375 0.21875 -3.359375 0.21875l-11.078125 0l0 -21.46875l11.046875 0q2.640625 0 4.90625 0.515625q2.265625 0.515625 3.921875 1.765625q1.671875 1.234375 2.609375 3.296875q0.953125 2.0625 0.953125 5.140625zm-2.015625 0q0 -1.75 -0.34375 -3.09375q-0.34375 -1.34375 -0.984375 -2.328125q-0.640625 -1.0 -1.5625 -1.671875q-0.921875 -0.671875 -2.078125 -1.078125q-1.15625 -0.421875 -2.515625 -0.59375q-1.359375 -0.171875 -2.890625 -0.171875l-9.09375 0l0 17.890625l9.09375 0q2.296875 0 4.203125 -0.40625q1.90625 -0.421875 3.265625 -1.4375q1.375 -1.03125 2.140625 -2.75q0.765625 -1.734375 0.765625 -4.359375z" fill-rule="nonzero"/><path fill="#eeeeee" d="m166.10938 882.8169q-1.125 0.46875 -2.234375 0.859375q-1.09375 0.390625 -2.28125 0.671875q-1.1875 0.28125 -2.5 0.4375q-1.3125 0.15625 -2.859375 0.15625q-1.90625 0 -3.671875 -0.3125q-1.75 -0.3125 -3.265625 -0.9375q-1.515625 -0.625 -2.75 -1.546875q-1.234375 -0.9375 -2.125 -2.171875q-0.875 -1.234375 -1.359375 -2.78125q-0.46875 -1.546875 -0.46875 -3.390625q0 -1.84375 0.46875 -3.390625q0.484375 -1.546875 1.359375 -2.78125q0.890625 -1.234375 2.125 -2.15625q1.234375 -0.9375 2.75 -1.5625q1.515625 -0.625 3.265625 -0.9375q1.75 -0.3125 3.671875 -0.3125q1.546875 0 2.859375 0.15625q1.3125 0.15625 2.5 0.4375q1.1875 0.28125 2.28125 0.671875q1.109375 0.375 2.234375 0.84375l0 2.34375q-0.890625 -0.5625 -1.90625 -1.0625q-1.015625 -0.5 -2.203125 -0.875q-1.171875 -0.375 -2.515625 -0.59375q-1.34375 -0.21875 -2.875 -0.21875q-3.09375 0 -5.359375 0.671875q-2.265625 0.671875 -3.75 1.90625q-1.46875 1.21875 -2.1875 2.96875q-0.703125 1.734375 -0.703125 3.890625q0 2.15625 0.703125 3.890625q0.71875 1.734375 2.1875 2.96875q1.484375 1.21875 3.75 1.890625q2.265625 0.65625 5.359375 0.65625q1.53125 0 2.890625 -0.21875q1.375 -0.21875 2.5625 -0.59375q1.203125 -0.375 2.203125 -0.859375q1.015625 -0.5 1.84375 -1.046875l0 2.328125l0 0zm31.5625 -9.015625q0 2.890625 -1.046875 5.0q-1.046875 2.09375 -2.875 3.46875q-1.828125 1.359375 -4.3125 2.015625q-2.484375 0.65625 -5.359375 0.65625q-2.890625 0 -5.390625 -0.65625q-2.5 -0.65625 -4.34375 -2.015625q-1.84375 -1.375 -2.890625 -3.46875q-1.046875 -2.109375 -1.046875 -5.0q0 -1.921875 0.484375 -3.484375q0.484375 -1.578125 1.359375 -2.8125q0.875 -1.25 2.109375 -2.15625q1.25 -0.90625 2.765625 -1.5q1.53125 -0.609375 3.28125 -0.890625q1.75 -0.296875 3.671875 -0.296875q2.875 0 5.359375 0.65625q2.484375 0.65625 4.3125 2.03125q1.828125 1.359375 2.875 3.46875q1.046875 2.09375 1.046875 4.984375zm-2.015625 0q0 -2.28125 -0.75 -4.03125q-0.734375 -1.75 -2.1875 -2.9375q-1.453125 -1.203125 -3.625 -1.8125q-2.15625 -0.625 -5.015625 -0.625q-2.859375 0 -5.046875 0.625q-2.171875 0.625 -3.640625 1.828125q-1.46875 1.1875 -2.21875 2.953125q-0.75 1.75 -0.75 4.0q0 2.28125 0.75 4.03125q0.75 1.75 2.21875 2.953125q1.46875 1.1875 3.640625 1.8125q2.1875 0.609375 5.046875 0.609375q2.859375 0 5.015625 -0.609375q2.171875 -0.625 3.625 -1.8125q1.453125 -1.203125 2.1875 -2.953125q0.75 -1.75 0.75 -4.03125zm28.515625 10.71875l0 -14.171875q0 -1.78125 -0.484375 -2.921875q-0.46875 -1.15625 -1.359375 -1.828125q-0.875 -0.671875 -2.140625 -0.9375q-1.265625 -0.265625 -2.84375 -0.265625q-1.828125 0 -3.59375 0.453125q-1.75 0.4375 -3.3125 1.125q-1.5625 0.671875 -2.875 1.5q-1.3125 0.828125 -2.21875 1.59375l0 15.453125l-1.953125 0l0 -21.46875l1.953125 0l0 3.765625q1.09375 -0.6875 2.40625 -1.4375q1.328125 -0.765625 2.84375 -1.390625q1.53125 -0.640625 3.265625 -1.046875q1.734375 -0.40625 3.65625 -0.40625q2.171875 0 3.78125 0.53125q1.625 0.515625 2.6875 1.484375q1.078125 0.953125 1.609375 2.328125q0.53125 1.359375 0.53125 3.046875l0 14.59375l-1.953125 0zm17.78125 -19.6875l0 19.6875l-1.9375 0l0 -19.6875l-9.765625 0l0 -1.78125l21.46875 0l0 1.78125l-9.765625 0zm34.984375 18.5625q-1.3125 0.40625 -2.4375 0.703125q-1.125 0.28125 -2.21875 0.453125q-1.09375 0.1875 -2.234375 0.265625q-1.125 0.09375 -2.484375 0.09375q-3.15625 0 -5.703125 -0.765625q-2.546875 -0.765625 -4.34375 -2.1875q-1.78125 -1.4375 -2.75 -3.46875q-0.96875 -2.03125 -0.96875 -4.5625q0 -2.453125 0.921875 -4.5q0.9375 -2.046875 2.609375 -3.515625q1.671875 -1.46875 4.0 -2.28125q2.328125 -0.8125 5.140625 -0.8125q2.921875 0 5.203125 0.78125q2.28125 0.78125 3.84375 2.234375q1.5625 1.453125 2.375 3.53125q0.8125 2.0625 0.8125 4.65625l0 0.484375l-22.890625 0q0.171875 2.0 1.0 3.609375q0.828125 1.609375 2.34375 2.734375q1.53125 1.125 3.75 1.734375q2.234375 0.59375 5.203125 0.59375q1.265625 0 2.5625 -0.171875q1.296875 -0.171875 2.484375 -0.453125q1.1875 -0.296875 2.171875 -0.65625q0.984375 -0.375 1.609375 -0.765625l0 2.265625zm-0.15625 -10.59375q-0.109375 -1.640625 -0.734375 -3.125q-0.625 -1.5 -1.875 -2.640625q-1.234375 -1.140625 -3.15625 -1.8125q-1.90625 -0.671875 -4.578125 -0.671875q-2.515625 0 -4.40625 0.671875q-1.890625 0.671875 -3.203125 1.8125q-1.3125 1.125 -2.0625 2.625q-0.75 1.484375 -0.953125 3.140625l20.96875 0zm28.421875 11.71875l0 -14.171875q0 -1.78125 -0.484375 -2.921875q-0.46875 -1.15625 -1.359375 -1.828125q-0.875 -0.671875 -2.140625 -0.9375q-1.265625 -0.265625 -2.84375 -0.265625q-1.828125 0 -3.59375 0.453125q-1.75 0.4375 -3.3125 1.125q-1.5625 0.671875 -2.875 1.5q-1.3125 0.828125 -2.21875 1.59375l0 15.453125l-1.953125 0l0 -21.46875l1.953125 0l0 3.765625q1.09375 -0.6875 2.40625 -1.4375q1.328125 -0.765625 2.84375 -1.390625q1.53125 -0.640625 3.265625 -1.046875q1.734375 -0.40625 3.65625 -0.40625q2.171875 0 3.78125 0.53125q1.625 0.515625 2.6875 1.484375q1.078125 0.953125 1.609375 2.328125q0.53125 1.359375 0.53125 3.046875l0 14.59375l-1.953125 0zm17.78125 -19.6875l0 19.6875l-1.9375 0l0 -19.6875l-9.765625 0l0 -1.78125l21.46875 0l0 1.78125l-9.765625 0zm49.453125 8.9375q0 2.0625 -0.4375 3.671875q-0.421875 1.59375 -1.203125 2.78125q-0.78125 1.1875 -1.90625 2.015625q-1.109375 0.828125 -2.484375 1.328125q-1.359375 0.5 -2.96875 0.734375q-1.59375 0.21875 -3.359375 0.21875l-11.078125 0l0 -21.46875l11.046875 0q2.640625 0 4.90625 0.515625q2.265625 0.515625 3.921875 1.765625q1.671875 1.234375 2.609375 3.296875q0.953125 2.0625 0.953125 5.140625zm-2.015625 0q0 -1.75 -0.34375 -3.09375q-0.34375 -1.34375 -0.984375 -2.328125q-0.640625 -1.0 -1.5625 -1.671875q-0.921875 -0.671875 -2.078125 -1.078125q-1.15625 -0.421875 -2.515625 -0.59375q-1.359375 -0.171875 -2.890625 -0.171875l-9.09375 0l0 17.890625l9.09375 0q2.296875 0 4.203125 -0.40625q1.90625 -0.421875 3.265625 -1.4375q1.375 -1.03125 2.140625 -2.75q0.765625 -1.734375 0.765625 -4.359375zm29.34375 9.625q-1.3125 0.40625 -2.4375 0.703125q-1.125 0.28125 -2.21875 0.453125q-1.09375 0.1875 -2.234375 0.265625q-1.125 0.09375 -2.484375 0.09375q-3.15625 0 -5.703125 -0.765625q-2.546875 -0.765625 -4.34375 -2.1875q-1.78125 -1.4375 -2.75 -3.46875q-0.96875 -2.03125 -0.96875 -4.5625q0 -2.453125 0.921875 -4.5q0.9375 -2.046875 2.609375 -3.515625q1.671875 -1.46875 4.0 -2.28125q2.328125 -0.8125 5.140625 -0.8125q2.921875 0 5.203125 0.78125q2.28125 0.78125 3.84375 2.234375q1.5625 1.453125 2.375 3.53125q0.8125 2.0625 0.8125 4.65625l0 0.484375l-22.890625 0q0.171875 2.0 1.0 3.609375q0.828125 1.609375 2.34375 2.734375q1.53125 1.125 3.75 1.734375q2.234375 0.59375 5.203125 0.59375q1.265625 0 2.5625 -0.171875q1.296875 -0.171875 2.484375 -0.453125q1.1875 -0.296875 2.171875 -0.65625q0.984375 -0.375 1.609375 -0.765625l0 2.265625zm-0.15625 -10.59375q-0.109375 -1.640625 -0.734375 -3.125q-0.625 -1.5 -1.875 -2.640625q-1.234375 -1.140625 -3.15625 -1.8125q-1.90625 -0.671875 -4.578125 -0.671875q-2.515625 0 -4.40625 0.671875q-1.890625 0.671875 -3.203125 1.8125q-1.3125 1.125 -2.0625 2.625q-0.75 1.484375 -0.953125 3.140625l20.96875 0zm9.59375 4.296875q0 1.453125 0.234375 2.5q0.234375 1.046875 0.984375 1.71875q0.75 0.671875 2.15625 1.0q1.421875 0.3125 3.765625 0.3125l9.703125 0l0 1.890625l-10.09375 0q-2.578125 0 -4.265625 -0.40625q-1.671875 -0.421875 -2.671875 -1.28125q-0.984375 -0.875 -1.375 -2.203125q-0.390625 -1.328125 -0.390625 -3.15625l0 -14.421875l1.953125 0l0 14.046875zm20.765625 7.421875l0 -21.46875l1.953125 0l0 21.46875l-1.953125 0zm20.078125 0l-2.921875 0l-10.71875 -21.46875l2.1875 0l10.046875 20.125l10.046875 -20.125l2.171875 0l-10.8125 21.46875zm36.921875 -1.125q-1.3125 0.40625 -2.4375 0.703125q-1.125 0.28125 -2.21875 0.453125q-1.09375 0.1875 -2.234375 0.265625q-1.125 0.09375 -2.484375 0.09375q-3.15625 0 -5.703125 -0.765625q-2.546875 -0.765625 -4.34375 -2.1875q-1.78125 -1.4375 -2.75 -3.46875q-0.96875 -2.03125 -0.96875 -4.5625q0 -2.453125 0.921875 -4.5q0.9375 -2.046875 2.609375 -3.515625q1.671875 -1.46875 4.0 -2.28125q2.328125 -0.8125 5.140625 -0.8125q2.921875 0 5.203125 0.78125q2.28125 0.78125 3.84375 2.234375q1.5625 1.453125 2.375 3.53125q0.8125 2.0625 0.8125 4.65625l0 0.484375l-22.890625 0q0.171875 2.0 1.0 3.609375q0.828125 1.609375 2.34375 2.734375q1.53125 1.125 3.75 1.734375q2.234375 0.59375 5.203125 0.59375q1.265625 0 2.5625 -0.171875q1.296875 -0.171875 2.484375 -0.453125q1.1875 -0.296875 2.171875 -0.65625q0.984375 -0.375 1.609375 -0.765625l0 2.265625zm-0.15625 -10.59375q-0.109375 -1.640625 -0.734375 -3.125q-0.625 -1.5 -1.875 -2.640625q-1.234375 -1.140625 -3.15625 -1.8125q-1.90625 -0.671875 -4.578125 -0.671875q-2.515625 0 -4.40625 0.671875q-1.890625 0.671875 -3.203125 1.8125q-1.3125 1.125 -2.0625 2.625q-0.75 1.484375 -0.953125 3.140625l20.96875 0zm23.546875 -8.09375q-0.453125 -0.140625 -1.265625 -0.296875q-0.796875 -0.171875 -2.0625 -0.171875q-1.75 0 -3.296875 0.4375q-1.53125 0.421875 -2.859375 1.15625q-1.3125 0.734375 -2.4375 1.71875q-1.125 0.96875 -2.03125 2.0625l0 14.90625l-1.953125 0l0 -21.46875l1.953125 0l0 4.375q1.046875 -1.078125 2.265625 -1.984375q1.234375 -0.90625 2.59375 -1.546875q1.359375 -0.65625 2.84375 -1.015625q1.5 -0.375 3.09375 -0.375q0.546875 0 0.984375 0.03125q0.4375 0.015625 0.796875 0.0625q0.375 0.03125 0.703125 0.078125q0.328125 0.046875 0.671875 0.109375l0 1.921875l0 0zm25.53125 11.96875q0 2.109375 -0.984375 3.65625q-0.984375 1.53125 -2.71875 2.546875q-1.71875 1.015625 -4.078125 1.515625q-2.34375 0.484375 -5.078125 0.484375q-2.96875 0 -5.453125 -0.375q-2.484375 -0.390625 -4.34375 -1.078125l0 -2.265625q1.0 0.421875 2.0625 0.78125q1.0625 0.359375 2.265625 0.640625q1.203125 0.265625 2.5625 0.421875q1.375 0.140625 2.96875 0.140625q2.25 0 4.21875 -0.421875q1.96875 -0.4375 3.421875 -1.25q1.46875 -0.828125 2.3125 -2.03125q0.859375 -1.203125 0.859375 -2.765625l0 -4.0625q-0.75 1.015625 -1.84375 1.953125q-1.078125 0.921875 -2.421875 1.640625q-1.328125 0.703125 -2.890625 1.140625q-1.5625 0.421875 -3.296875 0.421875q-1.96875 0 -3.5 -0.359375q-1.515625 -0.375 -2.65625 -1.015625q-1.125 -0.640625 -1.90625 -1.515625q-0.78125 -0.890625 -1.265625 -1.921875q-0.46875 -1.046875 -0.6875 -2.1875q-0.203125 -1.140625 -0.203125 -2.3125l0 -5.40625l1.984375 0l0 4.984375q0 1.796875 0.421875 3.265625q0.4375 1.46875 1.421875 2.515625q0.984375 1.046875 2.578125 1.625q1.609375 0.5625 3.96875 0.5625q1.828125 0 3.359375 -0.484375q1.53125 -0.5 2.796875 -1.328125q1.265625 -0.84375 2.296875 -1.9375q1.03125 -1.09375 1.84375 -2.296875l0 -6.90625l1.984375 0l0 13.625z" fill-rule="nonzero"/></g></svg>